# xmcd CD database file
#
# Track frame offsets:
#	150
#	24128
#	40785
#	60895
#	76895
#	95645
#	112970
#	128102
#
# Disc length: 1969 seconds
#
# Revision: 1
# Processed by: cddbd v1.5.2PL0 Copyright (c) Steve Scherf et al.
# Submitted via: CDex 1.51
#
DISCID=5107af08
DTITLE=Colibri Inne Vysotska - Should I...
DYEAR=2006
DGENRE=Jazz
TTITLE0=Colibri
TTITLE1=Should I
TTITLE2=The look of Love
TTITLE3=Matagal
TTITLE4=Sway
TTITLE5=Storm
TTITLE6=La mentira
TTITLE7=Uma Cousau
EXTD=YEAR: 2006
EXTT0=
EXTT1=
EXTT2=
EXTT3=
EXTT4=
EXTT5=
EXTT6=
EXTT7=
PLAYORDER=
